# xmcd CD database file
#
# Track frame offsets:
#	150
#	20535
#	40385
#	59527
#	82581
#	105291
#	121316
#	134111
#	147700
#	162943
#	179777
#	190315
#	206460
#	226061
#	242712
#	252474
#	263390
#	280598
#	291514
#	306936
#	324934
#
# Disc length: 4517 seconds
#
# Revision: 0
# Processed by: cddbd v1.5.1PL2 Copyright (c) Steve Scherf et al.
# Submitted via: CDex 1.50
#
DISCID=3411a315
DTITLE=Gerry Mulligan - Gerry Mulligan - Mosaic Select 21 Disc 3
DYEAR=2005
DGENRE=Jazz
TTITLE0=Lullaby In Rhythm
TTITLE1=Body And Soul
TTITLE2=Out Of Nowhere
TTITLE3=I'll Remember April
TTITLE4=I Can't Get Started
TTITLE5=I Feel Pretty
TTITLE6=How About You?
TTITLE7=I've Grown Accustomed To His Face
TTITLE8=This Time The Dream's On Me
TTITLE9=Let There Be Love
TTITLE10=All Of You
TTITLE11=Give Me The Simple Life
TTITLE12=This Is Always
TTITLE13=Between The Devil And The Deep Blue Sea
TTITLE14=It Don't Mean A Thing If It Ain't Got That Swing
TTITLE15=The Lady's In Love With You
TTITLE16=My Old Flame
TTITLE17=I Guess I'll Have To Change My Plans
TTITLE18=You Turned The Tables On Me
TTITLE19=This Is Always (first version)
TTITLE20=I've Grown Accustomed To His Face (first version)
EXTD=YEAR: 2005
EXTT0=
EXTT1=
EXTT2=
EXTT3=
EXTT4=
EXTT5=
EXTT6=
EXTT7=
EXTT8=
EXTT9=
EXTT10=
EXTT11=
EXTT12=
EXTT13=
EXTT14=
EXTT15=
EXTT16=
EXTT17=
EXTT18=
EXTT19=
EXTT20=
PLAYORDER=
